<?xml version="1.0" encoding="UTF-8"?>
<!-- Generated by Pixelmator Pro 3.4.3 -->
<svg width="256" height="256" viewBox="0 0 256 256" xmlns="http://www.w3.org/2000/svg">
    <radialGradient id="radialGradient1" cx="127.209468" cy="254.499858" r="166.384794" fx="127.209468" fy="254.499858" gradientUnits="userSpaceOnUse">
        <stop offset="1e-05" stop-color="#bcdcf0" stop-opacity="1"/>
        <stop offset="1" stop-color="#3598db" stop-opacity="1"/>
    </radialGradient>
    <path id="rect3905" fill="url(#radialGradient1)" stroke="none" visibility="hidden" d="M 32 0 L 224 0 C 241.673111 0 256 14.326889 256 32 L 256 224 C 256 241.673111 241.673111 256 224 256 L 32 256 C 14.326888 256 0 241.673111 0 224 L 0 32 C 0 14.326889 14.326888 0 32 0 Z"/>
    <path id="---" fill="#00a2ff" fill-rule="evenodd" stroke="none" d="M -1 241 C -1 249.836563 6.163444 257 15 257 L 240 257 C 248.836563 257 256 249.836563 256 241 L 256 16 C 256 7.163437 248.836563 0 240 0 L 15 0 C 6.163444 0 -1 7.163437 -1 16 Z"/>
    <g id="g3978">
        <linearGradient id="linearGradient1" x1="102.49135" y1="74.108478" x2="97.8449" y2="116.411428" gradientUnits="userSpaceOnUse">
            <stop offset="1e-05" stop-color="#e74c3c" stop-opacity="1"/>
            <stop offset="1" stop-color="#000000" stop-opacity="0"/>
        </linearGradient>
        <path id="path3907" fill="url(#linearGradient1)" stroke="none" d="M 97.188652 70.433914 C 96.240715 78.433914 95.355339 85.746414 94.407402 93.746414 C 93.354057 103.487549 97.24511 106.092667 101.001152 103.277664 C 100.647209 101.824677 100.465874 99.804459 100.594902 96.902664 L 102.491325 74.108475 Z"/>
        <linearGradient id="linearGradient2" x1="108.85111" y1="64.692888" x2="108.85111" y2="195.887348" gradientUnits="userSpaceOnUse">
            <stop offset="1e-05" stop-color="#ff9e06" stop-opacity="1"/>
            <stop offset="1" stop-color="#898989" stop-opacity="0"/>
        </linearGradient>
        <path id="path3909" fill="url(#linearGradient2)" stroke="none" d="M 128.000046 55 C 128.000046 55 115.514458 61.259781 108.851128 64.692902 C 108.132378 72.911652 107.74633 80.330353 107.02758 88.549103 C 105.89959 106.032455 92.553886 110.76944 94.395256 93.740311 C 95.343132 85.740311 96.250542 78.420181 97.198479 70.420181 L 81.375298 78.197235 C 74.595879 117.905884 60.208424 198.056824 60.208424 198.056824 C 84.850334 197.26825 105.934563 196.593491 128.000046 195.88736 Z"/>
        <linearGradient id="linearGradient3" x1="153.49891" y1="74.094738" x2="158.14536" y2="116.397688" gradientUnits="userSpaceOnUse">
            <stop offset="1e-05" stop-color="#f39c12" stop-opacity="1"/>
            <stop offset="1" stop-color="#000000" stop-opacity="0"/>
        </linearGradient>
        <path id="path3911" fill="url(#linearGradient3)" stroke="none" d="M 158.80162 70.420181 C 159.749496 78.420181 160.634933 85.732681 161.58287 93.732681 C 162.636154 103.473801 158.745163 106.078934 154.98912 103.263931 C 155.343063 101.810944 155.524338 99.79071 155.39537 96.888931 L 153.498886 74.094742 Z"/>
        <linearGradient id="linearGradient4" x1="147.14895" y1="64.692888" x2="147.14895" y2="195.887348" gradientUnits="userSpaceOnUse">
            <stop offset="1e-05" stop-color="#ff3824" stop-opacity="1"/>
            <stop offset="1" stop-color="#000000" stop-opacity="0"/>
        </linearGradient>
        <path id="path3913" fill="url(#linearGradient4)" stroke="none" d="M 128.000046 55 C 128.000046 55 140.48558 61.259781 147.148972 64.692902 C 147.867661 72.911652 148.253769 80.330353 148.972458 88.549103 C 150.100449 106.032455 163.446213 110.76944 161.604843 93.740311 C 160.656906 85.740311 159.749496 78.420181 158.80162 70.420181 L 174.624741 78.197235 C 181.40416 117.905884 195.791611 198.056824 195.791611 198.056824 C 171.149704 197.26825 150.065536 196.593491 128.000046 195.88736 Z"/>
    </g>
</svg>
